<?xml version="1.0" standalone="no"?>
<!DOCTYPE svg PUBLIC "-//W3C//DTD SVG 20010904//EN"
 "http://www.w3.org/TR/2001/REC-SVG-20010904/DTD/svg10.dtd">
<svg version="1.0" xmlns="http://www.w3.org/2000/svg"
 width="2500.000000pt" height="328.000000pt" viewBox="0 0 2500.000000 328.000000"
 preserveAspectRatio="xMidYMid meet">

<g transform="translate(0.000000,328.000000) scale(0.100000,-0.100000)"
fill="#000000" stroke="none">
<path d="M12125 3020 c-11 -5 -34 -9 -52 -9 -33 -1 -130 -23 -201 -47 -237
-78 -445 -245 -559 -447 -123 -221 -181 -447 -203 -797 -9 -145 -8 -206 5
-355 14 -161 22 -214 55 -360 25 -109 109 -286 182 -385 106 -141 272 -265
443 -330 97 -36 162 -50 304 -65 180 -18 365 1 561 60 30 9 67 19 83 22 15 3
30 9 33 14 3 5 13 9 22 9 9 0 30 7 46 15 15 8 35 15 42 15 8 0 26 7 39 16 l25
16 0 637 c0 350 -4 642 -8 648 -7 11 -155 23 -447 37 -23 1 -31 -4 -33 -19 -2
-17 7 -24 47 -38 87 -32 157 -107 193 -207 36 -100 48 -391 27 -647 -14 -183
-31 -226 -109 -284 -77 -57 -279 -109 -421 -109 -63 0 -232 27 -287 45 -203
69 -354 208 -447 410 -88 193 -134 452 -135 760 -1 298 46 544 141 740 94 196
271 350 483 420 132 43 178 50 386 50 130 0 220 -4 245 -12 22 -6 63 -19 92
-27 257 -78 432 -243 519 -491 16 -45 26 -60 40 -60 18 0 19 10 15 310 -2 189
-7 315 -13 322 -24 29 -333 108 -528 135 -97 13 -559 20 -585 8z"/>
<path d="M1139 3006 c-11 -12 2 -46 18 -46 20 0 131 -56 170 -86 70 -53 121
-153 151 -298 15 -72 17 -166 17 -881 0 -838 -4 -932 -46 -1088 -39 -147 -111
-237 -242 -300 -67 -32 -76 -40 -68 -55 8 -16 18 -17 73 -11 35 4 157 11 271
15 159 5 212 11 223 21 12 12 14 214 14 1353 0 893 -3 1341 -10 1345 -6 4 -86
11 -178 16 -92 5 -216 12 -277 15 -60 4 -113 3 -116 0z"/>
<path d="M2439 3006 c-2 -3 -120 -9 -262 -15 -142 -6 -262 -13 -267 -16 -13
-8 -13 -2655 0 -2689 l10 -26 152 0 c84 0 205 -5 268 -10 184 -17 471 -15 580
3 200 33 280 61 430 148 65 38 175 127 230 186 171 187 261 392 322 733 18
102 18 538 0 640 -18 103 -62 277 -80 320 -153 362 -404 590 -757 689 -119 33
-196 41 -406 41 -119 0 -218 -2 -220 -4z m383 -192 c155 -26 241 -53 343 -106
234 -121 400 -345 478 -643 68 -260 68 -648 0 -910 -94 -362 -330 -609 -668
-700 -68 -18 -263 -45 -327 -45 -79 0 -316 29 -387 48 -63 17 -64 18 -77 62
-48 162 -63 436 -64 1158 0 616 10 945 31 1028 15 56 46 70 259 113 76 15 312
12 412 -5z"/>
<path d="M4792 2991 c2 -17 16 -27 53 -40 109 -39 173 -94 222 -194 38 -76 47
-111 68 -257 14 -100 15 -214 12 -880 -4 -850 -8 -919 -65 -1080 -41 -116
-124 -199 -244 -245 -33 -12 -48 -23 -48 -36 0 -10 3 -20 8 -22 4 -2 66 2 137
9 72 7 191 13 265 13 92 1 140 5 148 13 18 18 17 2708 0 2708 -7 1 -83 5 -168
10 -85 5 -208 12 -273 16 l-119 7 4 -22z"/>
<path d="M5965 3000 c-33 -4 -138 -11 -232 -15 l-173 -7 0 -1347 c0 -740 4
-1351 8 -1357 5 -8 85 -14 237 -18 127 -4 251 -9 278 -12 42 -5 47 -4 47 14 0
14 -14 26 -49 40 -95 41 -204 142 -239 222 -66 149 -72 231 -72 1095 0 901 6
983 78 1135 44 92 162 192 245 209 23 5 32 12 32 26 0 17 -7 20 -50 21 -27 1
-77 -2 -110 -6z"/>
<path d="M6500 2990 c0 -13 10 -24 28 -31 61 -23 182 -85 257 -132 72 -45 285
-199 317 -230 7 -7 33 -28 58 -47 44 -34 77 -62 149 -127 l36 -31 3 -664 c3
-818 -7 -1031 -56 -1183 -38 -117 -120 -189 -295 -259 -23 -9 -37 -21 -34 -28
3 -10 29 -12 103 -8 160 8 659 6 792 -4 118 -8 122 -8 122 11 0 15 -11 23 -42
32 -123 36 -236 115 -286 199 -89 152 -102 299 -102 1134 0 551 1 578 18 578
10 0 27 -8 38 -18 10 -9 51 -44 89 -76 95 -79 141 -117 270 -226 61 -50 119
-99 130 -109 398 -333 708 -594 726 -609 13 -11 44 -37 69 -57 57 -48 143
-120 195 -165 22 -20 61 -53 87 -73 26 -21 53 -44 60 -50 7 -7 51 -44 98 -82
47 -38 87 -72 90 -75 3 -3 32 -28 65 -55 33 -28 69 -58 80 -68 11 -10 52 -44
90 -75 39 -31 72 -59 75 -62 3 -3 32 -28 65 -55 33 -28 73 -62 90 -78 34 -31
63 -43 76 -30 4 4 9 53 10 107 l1 99 -33 31 c-19 18 -149 128 -289 246 -140
117 -257 216 -260 219 -3 3 -26 23 -52 44 -26 21 -53 43 -60 50 -16 15 -174
149 -232 195 -23 19 -52 43 -66 55 -14 12 -110 94 -215 182 -104 88 -192 162
-195 165 -3 3 -32 27 -65 55 -33 27 -62 52 -65 55 -3 3 -30 25 -60 50 -30 25
-57 47 -60 50 -3 3 -61 53 -130 111 -69 58 -194 163 -278 234 -84 72 -172 145
-195 163 -23 19 -55 46 -72 61 -16 15 -57 49 -90 75 -33 27 -62 52 -65 55 -3
4 -88 77 -190 162 -102 85 -196 164 -210 176 -107 92 -124 102 -174 107 -152
15 -308 26 -358 26 -52 0 -58 -2 -58 -20z"/>
<path d="M9302 2989 c2 -17 10 -25 28 -27 85 -10 213 -75 283 -144 67 -66 103
-137 130 -253 16 -72 19 -148 24 -737 6 -750 12 -701 -79 -626 -29 23 -55 45
-58 48 -3 3 -90 77 -195 165 -104 87 -192 162 -195 165 -3 3 -36 31 -75 62
-38 31 -79 65 -90 75 -11 10 -47 40 -80 68 -33 27 -62 52 -65 55 -3 3 -43 37
-90 75 -47 38 -87 71 -90 74 -3 3 -32 28 -65 56 -33 27 -62 52 -65 55 -8 8
-71 61 -118 98 -22 19 -51 43 -64 54 -13 11 -43 37 -68 57 -25 20 -47 39 -50
42 -3 4 -66 57 -140 119 -74 61 -145 120 -157 130 -12 10 -119 100 -237 199
l-215 181 -145 0 c-80 0 -146 -3 -145 -7 0 -5 54 -52 119 -107 65 -54 127
-105 137 -115 10 -9 38 -32 63 -52 25 -20 55 -46 68 -57 13 -11 42 -35 65 -54
23 -18 62 -51 87 -73 25 -23 66 -58 92 -78 26 -21 53 -43 60 -50 7 -7 40 -35
73 -62 33 -28 92 -77 131 -110 38 -33 81 -69 95 -80 13 -11 110 -92 214 -180
105 -88 201 -169 214 -180 14 -11 57 -47 95 -80 39 -33 98 -82 131 -110 33
-27 66 -55 73 -62 7 -7 34 -29 60 -50 26 -21 49 -41 52 -44 3 -3 120 -101 260
-219 140 -118 257 -216 260 -219 3 -4 37 -32 75 -63 39 -31 79 -65 90 -75 11
-10 47 -40 80 -68 33 -27 62 -53 63 -57 2 -5 10 -8 18 -8 12 0 14 108 14 738
0 978 10 1130 78 1269 49 102 192 216 292 232 27 5 36 12 38 30 l4 24 -109 -6
c-59 -3 -181 -11 -270 -17 -156 -10 -186 -9 -606 17 l-99 6 4 -24z"/>
<path d="M15135 2999 c-5 -16 -36 -434 -42 -580 -4 -82 -2 -97 12 -103 23 -8
55 11 55 33 0 16 20 86 39 136 24 62 81 163 113 200 21 23 59 53 85 65 101 47
129 50 554 50 l400 0 -4 -1007 c-3 -887 -5 -1018 -20 -1093 -32 -166 -65 -238
-142 -308 -52 -47 -79 -63 -167 -101 -37 -15 -46 -24 -41 -37 5 -15 16 -16 87
-9 45 4 171 10 281 14 l200 6 3 1358 2 1357 -437 0 c-405 1 -666 8 -885 26
-71 6 -88 4 -93 -7z"/>
<path d="M18045 2998 c-27 -5 -329 -12 -670 -16 l-620 -7 -3 -1332 c-1 -792 2
-1341 7 -1356 9 -24 11 -24 193 -30 100 -4 229 -10 286 -13 97 -7 102 -6 102
13 0 14 -14 24 -52 38 -180 63 -267 187 -304 434 -11 76 -14 280 -14 1083 l0
988 368 0 c394 0 446 -5 552 -52 118 -53 197 -188 215 -370 5 -46 10 -58 27
-64 11 -3 25 -1 30 4 11 11 22 169 33 495 l7 197 -54 -1 c-29 -1 -75 -6 -103
-11z"/>
<path d="M18490 2991 c0 -12 8 -24 18 -27 57 -18 130 -65 175 -115 67 -73 94
-126 124 -249 17 -70 18 -137 18 -965 0 -995 1 -979 -72 -1131 -43 -91 -103
-152 -192 -194 -52 -25 -71 -39 -71 -54 0 -18 5 -18 68 -11 37 4 158 10 269
14 111 3 205 10 210 14 4 5 8 615 8 1355 l0 1347 -150 12 c-82 6 -207 15 -277
19 -127 7 -128 7 -128 -15z"/>
<path d="M20475 2999 c-44 -4 -342 -11 -662 -15 l-583 -7 0 -1348 c0 -1291 1
-1349 18 -1358 11 -6 302 -12 733 -15 393 -3 741 -7 773 -8 l59 -3 18 70 c22
81 67 229 81 265 22 57 66 198 72 233 6 34 5 37 -17 37 -18 0 -35 -15 -68 -62
-105 -151 -213 -240 -344 -283 -141 -47 -181 -50 -623 -50 -391 0 -425 1 -436
17 -30 42 -40 197 -40 663 l-1 460 390 0 c433 0 492 -6 591 -59 90 -48 137
-125 170 -281 8 -34 13 -40 38 -43 l29 -4 -6 64 c-26 297 -30 443 -19 618 12
189 10 199 -26 200 -7 0 -22 -21 -33 -47 -33 -80 -52 -113 -92 -158 -78 -90
-203 -108 -702 -103 l-340 3 2 389 c2 415 14 554 54 607 l18 24 393 0 c495 -1
573 -11 684 -93 41 -30 85 -90 142 -192 19 -36 36 -55 48 -55 22 0 22 15 9
348 l-8 197 -121 -2 c-67 -1 -157 -5 -201 -9z"/>
<path d="M21936 3001 c-15 -23 15 -41 69 -41 28 0 65 -4 81 -9 16 -5 56 -17
89 -27 65 -20 150 -62 205 -102 92 -67 220 -228 220 -277 0 -23 -24 -72 -190
-390 -34 -66 -88 -169 -120 -230 -31 -60 -90 -173 -130 -250 -40 -77 -98 -187
-128 -245 -30 -58 -80 -154 -112 -215 -252 -485 -248 -479 -360 -629 -79 -107
-178 -203 -272 -266 -44 -29 -68 -52 -68 -64 0 -17 6 -18 63 -12 151 15 496
18 635 6 112 -10 146 -10 155 -1 14 14 3 24 -85 79 -56 35 -94 82 -115 141
-17 48 -16 155 1 213 12 39 66 163 95 218 4 8 45 87 91 175 45 88 94 183 108
210 49 94 -7 85 536 85 265 0 486 -4 492 -8 13 -8 230 -449 286 -582 58 -134
78 -211 78 -290 -1 -102 -41 -157 -142 -195 -35 -13 -48 -23 -48 -38 0 -19 4
-19 88 -13 48 3 179 9 290 13 150 4 205 9 209 19 2 7 -34 90 -80 186 -149 305
-273 559 -337 693 -34 72 -105 218 -157 325 -53 107 -136 278 -185 380 -107
220 -208 428 -351 720 -57 118 -123 254 -146 302 -22 48 -46 90 -52 94 -33 20
-702 43 -713 25z m861 -801 c34 -69 103 -210 153 -315 51 -104 103 -213 117
-242 43 -88 63 -83 -347 -83 -359 0 -414 5 -392 33 5 7 41 73 79 147 39 74
101 194 139 265 37 72 90 174 118 228 28 53 55 96 61 94 5 -1 38 -59 72 -127z"/>
<path d="M22870 2975 c0 -6 69 -149 435 -900 140 -287 234 -481 329 -677 208
-430 348 -717 493 -1014 39 -81 60 -114 76 -118 12 -3 65 -6 116 -6 52 0 157
-5 234 -12 116 -9 140 -9 147 2 5 8 7 17 5 20 -2 3 -45 30 -96 60 -126 74
-266 215 -375 376 -116 171 -150 236 -464 879 -67 138 -178 364 -246 502 -68
139 -124 255 -124 257 0 3 -15 37 -34 78 -18 40 -44 96 -56 123 -12 28 -38 83
-56 123 -19 41 -34 75 -34 77 0 2 -18 43 -40 90 -22 47 -40 92 -40 98 0 7 -7
20 -14 30 -11 14 -31 17 -135 17 -66 0 -121 -2 -121 -5z"/>
<path d="M11144 2682 c-107 -78 -283 -303 -352 -452 -30 -64 -68 -178 -91
-273 -34 -143 -37 -454 -5 -617 17 -87 41 -178 55 -202 5 -10 9 -23 9 -29 0
-21 80 -171 134 -252 55 -83 232 -270 247 -261 5 2 -16 53 -46 113 -30 60 -55
115 -55 123 0 8 -4 18 -8 24 -8 9 -30 74 -51 149 -18 68 -41 209 -41 257 0 25
-5 70 -11 99 -15 80 -12 455 5 579 16 113 36 213 61 300 9 30 20 69 24 85 8
31 47 124 84 205 12 25 38 73 59 108 21 34 38 65 38 67 0 11 -19 3 -56 -23z"/>
<path d="M3840 2644 c0 -4 15 -27 34 -53 35 -47 108 -180 119 -216 3 -11 13
-40 22 -65 41 -109 68 -245 95 -476 26 -230 -1 -574 -63 -806 -7 -26 -16 -50
-20 -54 -4 -4 -7 -14 -7 -22 0 -15 -15 -51 -61 -147 -33 -68 -64 -117 -128
-199 -24 -31 -42 -58 -40 -61 9 -8 125 86 205 165 181 179 282 365 340 625 25
110 25 434 0 550 -9 44 -20 91 -25 105 -4 14 -14 43 -21 65 -59 189 -208 408
-368 538 -66 55 -82 64 -82 51z"/>
<path d="M13549 1715 c-3 -2 -90 -9 -194 -15 -108 -6 -194 -15 -202 -21 -11
-10 -13 -119 -11 -613 l3 -601 35 1 c49 3 140 30 162 50 17 16 18 41 18 412 0
328 3 404 16 456 33 128 95 223 176 268 28 16 38 28 36 42 -3 20 -28 33 -39
21z"/>
</g>
</svg>
